<svg  viewBox="1 -73 511.99899 511" id="frontend" xmlns="http://www.w3.org/2000/svg"><path d="m79.902344 53.113281v215.148438c0 11.675781 9.5 21.175781 21.175781 21.175781h309.84375c11.675781 0 21.175781-9.5 21.175781-21.175781v-215.148438c0-11.679687-9.5-21.179687-21.175781-21.179687h-309.84375c-11.675781 0-21.175781 9.5-21.175781 21.179687zm337.09375 0v215.148438c0 3.347656-2.726563 6.070312-6.074219 6.070312h-309.84375c-3.347656 0-6.074219-2.722656-6.074219-6.070312v-215.148438c0-3.351562 2.726563-6.074219 6.074219-6.074219h309.84375c3.347656 0 6.074219 2.722657 6.074219 6.074219zm0 0"/><path d="m480.667969 302.449219h-15.714844v-278.226563c0-13.082031-10.640625-23.722656-23.722656-23.722656h-288.972657c-4.171874 0-7.550781 3.378906-7.550781 7.550781s3.378907 7.550781 7.550781 7.550781h288.972657c4.75 0 8.617187 3.867188 8.617187 8.621094v278.226563c-17.734375 0-370.960937 0-387.695312 0v-278.226563c0-4.753906 3.867187-8.621094 8.617187-8.621094h51.28125c4.171875 0 7.550781-3.378906 7.550781-7.550781s-3.378906-7.550781-7.550781-7.550781h-51.28125c-13.082031 0-23.722656 10.640625-23.722656 23.722656v278.226563h-15.714844c-17.277343 0-31.332031 14.054687-31.332031 31.328125 0 17.277344 14.054688 31.335937 31.332031 31.335937h36.492188c4.171875 0 7.550781-3.382812 7.550781-7.554687 0-4.167969-3.378906-7.550782-7.550781-7.550782h-36.492188c-8.949219 0-16.226562-7.28125-16.226562-16.230468 0-8.945313 7.277343-16.226563 16.226562-16.226563h449.335938c8.949219 0 16.226562 7.28125 16.226562 16.226563 0 8.949218-7.277343 16.230468-16.226562 16.230468h-382.636719c-4.171875 0-7.550781 3.382813-7.550781 7.550782 0 4.171875 3.378906 7.554687 7.550781 7.554687h382.636719c17.273437 0 31.332031-14.058593 31.332031-31.335937 0-17.273438-14.054688-31.328125-31.332031-31.328125zm0 0"/><path d="m141.171875 227.546875c12.734375 0 23.449219-8.804687 26.386719-20.640625h20.945312v38.292969c0 4.171875 3.382813 7.550781 7.554688 7.550781h110.890625c4.171875 0 7.550781-3.378906 7.550781-7.550781v-13.558594h29.988281c3.59375 10.808594 13.796875 18.628906 25.796875 18.628906 14.992188 0 27.1875-12.195312 27.1875-27.1875 0-14.992187-12.195312-27.1875-27.1875-27.1875-12.734375 0-23.445312 8.804688-26.382812 20.644531h-29.402344v-15.785156c0-4.171875-3.378906-7.550781-7.550781-7.550781s-7.550781 3.378906-7.550781 7.550781v36.894532h-95.789063v-107.085938l47.894531-44.121094 47.890625 44.121094v39.984375c0 4.171875 3.382813 7.550781 7.554688 7.550781s7.550781-3.378906 7.550781-7.550781v-26.304687l8.722656 8.003906c3.066406 2.8125 7.84375 2.625 10.671875-.457032 2.820313-3.070312 2.617188-7.847656-.457031-10.667968l-14.65625-13.453125h51.503906c4.171875 0 7.550782-3.378907 7.550782-7.550781v-15.59375c11.328124-3.28125 19.636718-13.742188 19.636718-26.109376 0-14.992187-12.195312-27.1875-27.1875-27.1875-14.992187 0-27.1875 12.195313-27.1875 27.1875 0 12.367188 8.308594 22.828126 19.636719 26.109376v8.042968h-60.410156c-.214844-.199218-.367188-.339844-.480469-.441406-.007812-.007812-.019531-.019531-.035156-.035156.007812.007812.011718.015625.019531.019531-.011719-.007813-.019531-.019531-.03125-.027344-.03125-.027343-.082031-.074219-.152344-.140625-.003906-.003906-.007812-.007812-.011719-.007812-.003906-.003906-.007812-.011719-.011718-.011719h.003906c-.050781-.042969-.046875-.039063-.015625-.011719-1.308594-1.199218-8.878906-8.148437-44.996094-41.296875-.15625-.085937-2.625-2.578125-6.484375-1.867187-4.015625.738281-.308594-.753906-80.46875 72.378906-3.070312 2.820312-3.273437 7.597656-.449218 10.667969 2.824218 3.070312 7.601562 3.273437 10.671874.453125l8.621094-7.925782v47.480469h-21.53125c-3.597656-10.804687-13.800781-18.625-25.800781-18.625-14.988281 0-27.1875 12.195313-27.1875 27.1875 0 14.988281 12.199219 27.183594 27.1875 27.183594zm229.113281-16.546875c6.664063 0 12.085938 5.421875 12.085938 12.082031 0 6.664063-5.421875 12.085938-12.085938 12.085938-6.660156 0-12.082031-5.421875-12.082031-12.085938 0-6.660156 5.421875-12.082031 12.082031-12.082031zm-12.082031-132.589844c0-6.660156 5.421875-12.082031 12.082031-12.082031 6.664063 0 12.085938 5.421875 12.085938 12.082031 0 6.664063-5.421875 12.085938-12.085938 12.085938-6.660156 0-12.082031-5.421875-12.082031-12.085938zm-217.03125 109.867188c6.664063 0 12.085937 5.417968 12.085937 12.082031s-5.421874 12.082031-12.085937 12.082031c-6.660156 0-12.082031-5.417968-12.082031-12.082031s5.421875-12.082031 12.082031-12.082031zm0 0"/></svg>